<svg xmlns="http://www.w3.org/2000/svg" width="513" height="505.51" viewBox="0 0 513 505.51"><defs><style>.a{fill:#fff;stroke:#000;stroke-miterlimit:10;}</style></defs><path class="a" d="M510,288.86a257.31,257.31,0,0,0,.14-71.27l-57.51-11.47a200.61,200.61,0,0,0-9.6-29.85l39.88-43.19A256.68,256.68,0,0,0,441.2,75.46L387.93,100A201.5,201.5,0,0,0,362.29,81.2l6.88-58.41A254.27,254.27,0,0,0,301.78.71L273.08,51.9c-5.47-.45-11-.69-16.58-.69-5.26,0-10.47.21-15.62.6L212.13.55a254.39,254.39,0,0,0-67.35,21.77l6.86,58.3a201.68,201.68,0,0,0-26.22,19.06L72.11,75.14A256.76,256.76,0,0,0,30.5,132.39l39.83,43.13a200.73,200.73,0,0,0-10,30.81L2.88,217.8A257.39,257.39,0,0,0,3,288.65l57.61,11.5a200.12,200.12,0,0,0,10,30.45L30.84,373.67a256.39,256.39,0,0,0,42,57.3l53.4-24.58a202.65,202.65,0,0,0,25.56,18.49l-6.86,58.28A254.28,254.28,0,0,0,212.65,505l28.77-51.31q7.47.56,15.08.56c5.4,0,10.75-.22,16-.63l28.73,51.22a253.86,253.86,0,0,0,67.79-22.11l-6.88-58.4a201.63,201.63,0,0,0,25-18.2l53.36,24.56a256.58,256.58,0,0,0,42-57.67L442.7,329.85a200.48,200.48,0,0,0,9.62-29.49ZM256.5,358.21A105.5,105.5,0,1,1,362,252.71,105.49,105.49,0,0,1,256.5,358.21Z"/></svg>