<svg xmlns="http://www.w3.org/2000/svg" width="512" height="512" viewBox="0 0 512 512"><defs><style>.a{fill:#ebf6ff;}.b{fill:#fff;}</style></defs><polygon class="a" points="290.63 221.38 449.54 255.5 290.63 289.63 256.5 448.54 222.38 289.63 63.46 255.5 222.38 221.38 256.5 62.46 290.63 221.38"/><polygon class="b" points="257 256 65.71 256 222.32 289.63 256.45 448.55 257 445.98 257 256"/><polygon class="b" points="449.49 255.51 290.57 221.38 257 65.03 257 256 447.19 256 449.49 255.51"/><polygon class="a" points="370.94 141.73 411 150.33 370.94 158.94 362.33 199 353.73 158.94 313.67 150.33 353.73 141.73 362.33 101.67 370.94 141.73"/><polygon class="b" points="362.46 150.46 314.23 150.46 353.72 158.94 362.32 199 362.46 198.35 362.46 150.46"/><polygon class="b" points="410.99 150.34 370.92 141.73 362.46 102.31 362.46 150.46 410.41 150.46 410.99 150.34"/></svg>